HIERARCHY
ROOT __0
{
	OFFSET 0.0 0.0 0.0
	CHANNELS 0
	JOINT flamingo_r_Thigh_bone
	{
		OFFSET 1.185307 3.561054 7.114007
		CHANNELS 6 Xposition Yposition Zposition Xrotation Yrotation Zrotation
		JOINT flamingo_r_Knee_bone
		{
			OFFSET -8.967712 11.987509 0.000006
			CHANNELS 3 Xrotation Yrotation Zrotation
			JOINT flamingo_r_Ankle_bone
			{
				OFFSET 17.834785 26.486296 0.000005
				CHANNELS 3 Xrotation Yrotation Zrotation
				End Site
				{
					OFFSET 36.480133 -17.634111 -0.000154
				}
			}
		}
	}
	JOINT flamingo_l_Thigh_bone
	{
		OFFSET 1.185308 3.561053 -7.114387
		CHANNELS 6 Xposition Yposition Zposition Xrotation Yrotation Zrotation
		JOINT flamingo_l_Knee_bone
		{
			OFFSET -8.967720 11.987517 0.000003
			CHANNELS 3 Xrotation Yrotation Zrotation
			JOINT flamingo_l_Ankle_bone
			{
				OFFSET 17.834797 26.486288 0.000003
				CHANNELS 3 Xrotation Yrotation Zrotation
				End Site
				{
					OFFSET -36.480137 17.634136 0.000047
				}
			}
		}
	}
	JOINT flamingo_Spine1_bone
	{
		OFFSET -0.000003 0.000002 0.000008
		CHANNELS 6 Xposition Yposition Zposition Xrotation Yrotation Zrotation
		JOINT flamingo_Spine2_bone
		{
			OFFSET -9.864392 1.643905 -0.000001
			CHANNELS 3 Xrotation Yrotation Zrotation
			JOINT flamingo_Spine3_bone
			{
				OFFSET -12.387278 7.062553 -0.000002
				CHANNELS 3 Xrotation Yrotation Zrotation
				JOINT flamingo_Neck1_bone
				{
					OFFSET -8.087381 8.431678 -0.000001
					CHANNELS 3 Xrotation Yrotation Zrotation
					JOINT flamingo_Neck2_bone
					{
						OFFSET -4.882492 2.388067 -0.000001
						CHANNELS 3 Xrotation Yrotation Zrotation
						JOINT flamingo_Neck3_bone
						{
							OFFSET -4.184486 -2.519375 -0.000001
							CHANNELS 3 Xrotation Yrotation Zrotation
							JOINT flamingo_Neck4_bone
							{
								OFFSET -3.027969 -4.432964 -0.000001
								CHANNELS 3 Xrotation Yrotation Zrotation
								JOINT flamingo_Neck5_bone
								{
									OFFSET -2.047977 -6.061534 -0.000003
									CHANNELS 3 Xrotation Yrotation Zrotation
									JOINT flamingo_Neck6_bone
									{
										OFFSET -1.561317 -6.619872 -0.000004
										CHANNELS 3 Xrotation Yrotation Zrotation
										JOINT flamingo_Neck7_bone
										{
											OFFSET -1.414474 -7.646468 -0.000007
											CHANNELS 3 Xrotation Yrotation Zrotation
											JOINT flamingo_Neck8_bone
											{
												OFFSET -0.920242 -5.746908 -0.000006
												CHANNELS 3 Xrotation Yrotation Zrotation
												JOINT flamingo_Neck9_bone
												{
													OFFSET -1.326202 -5.241221 -0.000002
													CHANNELS 3 Xrotation Yrotation Zrotation
													JOINT flamingo_Neck10_bone
													{
														OFFSET -1.721828 -4.077135 0.000007
														CHANNELS 3 Xrotation Yrotation Zrotation
														JOINT flamingo_Neck11_bone
														{
															OFFSET -2.610771 -3.863018 0.000004
															CHANNELS 3 Xrotation Yrotation Zrotation
															JOINT flamingo_Neck12_bone
															{
																OFFSET -2.472809 -1.943823 0.000011
																CHANNELS 3 Xrotation Yrotation Zrotation
																JOINT flamingo_Head_bone
																{
																	OFFSET -3.349342 -1.664148 0.000001
																	CHANNELS 3 Xrotation Yrotation Zrotation
																	End Site
																	{
																		OFFSET -4.066330 -6.777430 0.000005
																	}
																}
															}
														}
													}
												}
											}
										}
									}
								}
							}
						}
					}
				}
			}
		}
	}
	JOINT flamingo_Tail_bone
	{
		OFFSET 7.640829 0.000000 0.000001
		CHANNELS 6 Xposition Yposition Zposition Xrotation Yrotation Zrotation
		End Site
		{
			OFFSET -0.154749 0.987954 -0.000000
		}
	}
}
MOTION
Frames: 7
Frame Time: 0.033333
1.185310 3.561038 7.114007 9.422132 15.406926 -15.399882 0.000054 0.000114 -4.740771 -3.817585 -17.603843 9.271901 1.185311 3.561042 -7.114389 -0.991126 -17.971213 -11.196294 -0.000007 -0.000001 28.885116 6.612161 16.779061 -6.221864 -0.000009 0.000014 0.000008 0.000030 -0.000012 0.000027 0.000010 0.000010 -0.000020 -0.000011 -0.000008 0.000005 -0.000038 0.000011 -0.000020 -0.000025 0.000009 0.817605 0.000009 0.000038 0.817598 -0.000085 -0.000126 0.817566 -0.000075 -0.000121 0.817570 -0.000087 -0.000237 0.817568 -0.000066 -0.000147 0.817575 -0.000051 -0.000161 -0.593224 0.000008 -0.000206 -1.296259 -0.000005 -0.000076 -0.703047 -0.000032 -0.000298 -0.703041 -0.000123 -0.000073 -0.703040 -0.000083 -0.000165 -0.703098 7.640828 -0.000011 -0.000000 -0.000001 0.000014 0.000006 
1.185310 3.561038 7.114007 9.532083 15.178400 -9.276088 0.000063 0.000105 -14.175836 -3.147121 -17.731931 15.527199 1.185311 3.561042 -7.114389 -1.004344 -18.012705 -7.262894 0.000000 0.000001 24.281375 6.220685 16.924432 -5.360238 -0.000009 0.000014 0.000008 0.106519 -0.051726 -0.008321 -0.184417 -0.013947 -0.031385 -0.178787 0.069919 -0.031305 0.056097 -0.031059 0.272806 -0.000014 -0.000000 1.002426 0.000009 0.000038 0.817601 -0.000093 -0.000109 1.040659 -0.000075 -0.000121 0.817570 -0.000088 -0.000237 0.596202 -0.000067 -0.000145 0.682062 -0.000052 -0.000164 -0.624231 -0.000005 -0.000201 -1.358704 -0.000017 -0.000094 -0.547494 -0.000024 -0.000276 -0.547486 -0.000119 -0.000072 -0.547472 -0.000080 -0.000159 -0.623164 7.640828 -0.000011 0.000000 -0.000001 -0.000000 -0.740052 
1.185310 3.561038 7.114007 9.485599 14.787773 2.881225 0.000072 0.000086 -31.099412 -2.201442 -17.869597 27.435482 1.185311 3.561042 -7.114388 -1.054463 -18.107275 0.807295 -0.000006 -0.000033 15.319165 5.485105 17.170495 -3.936414 -0.000009 0.000014 0.000008 0.372660 -0.181719 -0.043192 -0.645491 -0.049163 -0.115195 -0.625644 0.244640 -0.114292 0.197829 -0.106196 1.022323 -0.000017 0.000014 1.510522 0.000009 0.000038 0.817596 -0.000070 -0.000105 1.598415 -0.000075 -0.000121 0.817570 -0.000092 -0.000235 0.042788 -0.000070 -0.000149 0.343298 -0.000046 -0.000165 -0.701737 0.000014 -0.000206 -1.514795 -0.000033 -0.000108 -0.158575 -0.000017 -0.000265 -0.158587 -0.000127 -0.000070 -0.158578 -0.000077 -0.000160 -0.423312 7.640828 -0.000011 0.000000 0.000003 -0.000007 -2.114432 
1.185310 3.561038 7.114007 9.210911 14.403011 12.123717 0.000076 0.000070 -43.147070 -1.802280 -17.913334 40.507256 1.185311 3.561042 -7.114389 -1.362317 -18.214796 8.003973 -0.000038 -0.000083 7.354456 4.879951 17.347504 -2.922905 -0.000009 0.000014 0.000008 0.718639 -0.351196 -0.061381 -1.245014 -0.095653 -0.217757 -1.206470 0.471541 -0.214518 0.384752 -0.198745 1.927793 -0.000025 0.000009 2.123868 0.000009 0.000038 0.817596 -0.000074 -0.000094 2.323501 -0.000075 -0.000121 0.817573 -0.000091 -0.000242 -0.676638 -0.000065 -0.000146 -0.097099 -0.000053 -0.000163 -0.802498 0.000008 -0.000200 -1.717719 -0.000027 -0.000115 0.346982 -0.000023 -0.000263 0.346967 -0.000130 -0.000066 0.346991 -0.000078 -0.000153 -0.163442 7.640828 -0.000011 0.000000 0.000004 -0.000006 -2.854512 
1.185309 3.561038 7.114007 7.461733 15.012399 18.206233 0.000086 0.000064 -45.384886 -1.701152 -17.923759 49.253778 1.185311 3.561042 -7.114388 -2.117173 -18.319693 11.512092 -0.000090 -0.000149 2.561985 4.559763 17.432577 -2.337048 -0.000009 0.000014 0.000008 1.064742 -0.519060 -0.033919 -1.844602 -0.142709 -0.302098 -1.787192 0.698209 -0.295016 0.573669 -0.287275 2.647416 -0.000017 0.000005 2.610483 0.000009 0.000038 0.817600 -0.000055 -0.000083 3.048584 -0.000075 -0.000121 0.817573 -0.000095 -0.000236 -1.396073 -0.000068 -0.000144 -0.537497 -0.000058 -0.000153 -0.903266 0.000013 -0.000185 -1.920641 -0.000044 -0.000146 0.852540 -0.000017 -0.000261 0.852530 -0.000117 -0.000077 0.852545 -0.000084 -0.000157 0.096412 7.640828 -0.000011 0.000000 -0.000005 0.000013 -2.307131 
1.185310 3.561038 7.114007 4.379554 16.232585 19.906902 0.000077 0.000067 -37.537009 -1.785197 -17.916355 52.809776 1.185311 3.561043 -7.114388 -3.165178 -18.391905 11.846554 -0.000128 -0.000191 0.057631 4.416175 17.469110 -1.816976 -0.000009 0.000014 0.000008 1.331118 -0.646451 0.006222 -2.305846 -0.179160 -0.351236 -2.233902 0.872453 -0.340149 0.719656 -0.353937 3.060570 -0.000021 0.000002 2.889682 0.000008 0.000038 0.817598 -0.000052 -0.000070 3.606340 -0.000075 -0.000121 0.817572 -0.000105 -0.000234 -1.949493 -0.000071 -0.000146 -0.876269 -0.000047 -0.000161 -0.980765 0.000017 -0.000175 -2.076720 -0.000056 -0.000170 1.241461 -0.000006 -0.000255 1.241445 -0.000112 -0.000076 1.241455 -0.000080 -0.000152 0.296237 7.640828 -0.000011 0.000000 0.000009 0.000001 -1.125427 
1.185310 3.561038 7.114007 1.335155 17.100208 18.395117 0.000074 0.000077 -24.868401 -2.276251 -17.862312 50.295812 1.185311 3.561042 -7.114388 -4.189281 -18.381398 10.206987 -0.000124 -0.000176 -1.182396 4.342752 17.487280 -1.134954 -0.000009 0.000014 0.000008 1.437690 -0.696862 0.025902 -2.490335 -0.193787 -0.366029 -2.412597 0.942111 -0.353147 0.778076 -0.380554 3.185473 -0.000032 0.000003 2.974798 0.000009 0.000038 0.817601 -0.000046 -0.000073 3.829440 -0.000075 -0.000121 0.817572 -0.000100 -0.000233 -2.170848 -0.000072 -0.000143 -1.011776 -0.000053 -0.000158 -1.011768 0.000016 -0.000177 -2.139158 -0.000048 -0.000170 1.397016 -0.000010 -0.000259 1.396991 -0.000113 -0.000077 1.397014 -0.000078 -0.000153 0.376186 7.640828 -0.000011 0.000000 0.000003 0.000007 0.000021 
